<?xml version="1.0" encoding="utf-8"?>
<!-- Generator: Adobe Illustrator 22.0.0, SVG Export Plug-In . SVG Version: 6.00 Build 0)  -->
<svg version="1.1" id="Layer_1" xmlns="http://www.w3.org/2000/svg" xmlns:xlink="http://www.w3.org/1999/xlink" x="0px" y="0px"
	 viewBox="0 0 61.3 60" style="enable-background:new 0 0 61.3 60;" xml:space="preserve">
<style type="text/css">
	.st0{fill:#FFFFFF;}
	.st1{fill:#E2F7F3;}
	.st2{fill:#039BE5;}
</style>
<path class="st0" d="M56.7,44.1c-1.6,0-2.9,1.3-2.9,2.9s1.3,2.9,2.9,2.9v7.7H45.1V22.9L37.4,21v-8.7l11.5-2.9v17.3l7.7,2.9
	L56.7,44.1l-0.1,0.2C56.2,44.1,56.9,44.1,56.7,44.1z M18.1,57.6V28.7h-3.8V17.2l3.8-1.9V6.6l5.8-2.9l5.8,2.9v12.5v25
	c-2.1,0-3.8,1.7-3.8,3.8c0,2.1,1.7,3.8,3.8,3.8v5.8H18.1z"/>
<path class="st1" d="M6.6,38.3v-9.6h7.7h3.8v28.9H6.6V46c2.1,0,3.8-1.7,3.8-3.8C10.4,40.1,8.7,38.3,6.6,38.3z M45.1,22.9v34.6H29.7
	v-5.8c2.1,0,3.8-1.7,3.8-3.8c0-2.1-1.7-3.8-3.8-3.8v-25l7.7,1.9L45.1,22.9z"/>
<path class="st0" d="M6.6,38.3c2.1,0,3.8,1.7,3.8,3.8c0,2.1-1.7,3.8-3.8,3.8s-3.8-1.7-3.8-3.8C2.7,40.1,4.5,38.3,6.6,38.3z
	 M29.7,44.1c2.1,0,3.8,1.7,3.8,3.8c0,2.1-1.7,3.8-3.8,3.8s-3.8-1.7-3.8-3.8C25.8,45.8,27.6,44.1,29.7,44.1z M57.5,44.3
	c1.2,0.4,2,1.4,2,2.7c0,1.6-1.3,2.9-2.9,2.9s-2.9-1.3-2.9-2.9s1.3-2.9,2.9-2.9C56.9,44.1,57.2,44.2,57.5,44.3z"/>
<g>
	<path class="st2" d="M22,49.4c-0.3,0-0.5,0.2-0.5,0.5v3.8c0,0.3,0.2,0.5,0.5,0.5c0.3,0,0.5-0.2,0.5-0.5v-3.8
		C22.5,49.6,22.3,49.4,22,49.4z"/>
	<path class="st2" d="M22,14.8c-0.3,0-0.5,0.2-0.5,0.5v1.9c0,0.3,0.2,0.5,0.5,0.5c0.3,0,0.5-0.2,0.5-0.5v-1.9
		C22.5,15,22.3,14.8,22,14.8z"/>
	<path class="st2" d="M22,26.3c-0.3,0-0.5,0.2-0.5,0.5v1.9c0,0.3,0.2,0.5,0.5,0.5c0.3,0,0.5-0.2,0.5-0.5v-1.9
		C22.5,26.5,22.3,26.3,22,26.3z"/>
	<path class="st2" d="M22,43.6c-0.3,0-0.5,0.2-0.5,0.5V46c0,0.3,0.2,0.5,0.5,0.5c0.3,0,0.5-0.2,0.5-0.5v-1.9
		C22.5,43.8,22.3,43.6,22,43.6z"/>
	<path class="st2" d="M18.1,20.5c-0.3,0-0.5,0.2-0.5,0.5v1.9c0,0.3,0.2,0.5,0.5,0.5s0.5-0.2,0.5-0.5V21
		C18.6,20.7,18.4,20.5,18.1,20.5z"/>
	<path class="st2" d="M22,32.1c-0.3,0-0.5,0.2-0.5,0.5v1.9c0,0.3,0.2,0.5,0.5,0.5c0.3,0,0.5-0.2,0.5-0.5v-1.9
		C22.5,32.3,22.3,32.1,22,32.1z"/>
	<path class="st2" d="M25.8,40.7c0.3,0,0.5-0.2,0.5-0.5v-1.9c0-0.3-0.2-0.5-0.5-0.5c-0.3,0-0.5,0.2-0.5,0.5v1.9
		C25.4,40.5,25.5,40.7,25.8,40.7z"/>
	<path class="st2" d="M22,9c-0.3,0-0.5,0.2-0.5,0.5v1.9c0,0.3,0.2,0.5,0.5,0.5c0.3,0,0.5-0.2,0.5-0.5V9.5C22.5,9.2,22.3,9,22,9z"/>
	<path class="st2" d="M22,20.5c-0.3,0-0.5,0.2-0.5,0.5v1.9c0,0.3,0.2,0.5,0.5,0.5c0.3,0,0.5-0.2,0.5-0.5V21
		C22.5,20.7,22.3,20.5,22,20.5z"/>
	<path class="st2" d="M22,37.9c-0.3,0-0.5,0.2-0.5,0.5v1.9c0,0.3,0.2,0.5,0.5,0.5c0.3,0,0.5-0.2,0.5-0.5v-1.9
		C22.5,38,22.3,37.9,22,37.9z"/>
	<path class="st2" d="M14.3,49.4c-0.3,0-0.5,0.2-0.5,0.5v3.8c0,0.3,0.2,0.5,0.5,0.5c0.3,0,0.5-0.2,0.5-0.5v-3.8
		C14.8,49.6,14.6,49.4,14.3,49.4z"/>
	<path class="st2" d="M14.3,37.9c-0.3,0-0.5,0.2-0.5,0.5v1.9c0,0.3,0.2,0.5,0.5,0.5c0.3,0,0.5-0.2,0.5-0.5v-1.9
		C14.8,38,14.6,37.9,14.3,37.9z"/>
	<path class="st2" d="M14.3,43.6c-0.3,0-0.5,0.2-0.5,0.5V46c0,0.3,0.2,0.5,0.5,0.5c0.3,0,0.5-0.2,0.5-0.5v-1.9
		C14.8,43.8,14.6,43.6,14.3,43.6z"/>
	<path class="st2" d="M10.4,32.1c-0.3,0-0.5,0.2-0.5,0.5v1.9c0,0.3,0.2,0.5,0.5,0.5c0.3,0,0.5-0.2,0.5-0.5v-1.9
		C10.9,32.3,10.7,32.1,10.4,32.1z"/>
	<path class="st2" d="M10.4,49.4c-0.3,0-0.5,0.2-0.5,0.5v3.8c0,0.3,0.2,0.5,0.5,0.5c0.3,0,0.5-0.2,0.5-0.5v-3.8
		C10.9,49.6,10.7,49.4,10.4,49.4z"/>
	<path class="st2" d="M25.8,35c0.3,0,0.5-0.2,0.5-0.5v-1.9c0-0.3-0.2-0.5-0.5-0.5c-0.3,0-0.5,0.2-0.5,0.5v1.9
		C25.4,34.8,25.5,35,25.8,35z"/>
	<path class="st2" d="M25.8,17.6c0.3,0,0.5-0.2,0.5-0.5v-1.9c0-0.3-0.2-0.5-0.5-0.5c-0.3,0-0.5,0.2-0.5,0.5v1.9
		C25.4,17.5,25.5,17.6,25.8,17.6z"/>
	<path class="st2" d="M14.3,32.1c-0.3,0-0.5,0.2-0.5,0.5v1.9c0,0.3,0.2,0.5,0.5,0.5c0.3,0,0.5-0.2,0.5-0.5v-1.9
		C14.8,32.3,14.6,32.1,14.3,32.1z"/>
	<path class="st2" d="M25.8,23.4c0.3,0,0.5-0.2,0.5-0.5V21c0-0.3-0.2-0.5-0.5-0.5c-0.3,0-0.5,0.2-0.5,0.5v1.9
		C25.4,23.2,25.5,23.4,25.8,23.4z"/>
	<path class="st2" d="M25.8,11.9c0.3,0,0.5-0.2,0.5-0.5V9.5c0-0.3-0.2-0.5-0.5-0.5c-0.3,0-0.5,0.2-0.5,0.5v1.9
		C25.4,11.7,25.5,11.9,25.8,11.9z"/>
	<path class="st2" d="M25.8,29.2c0.3,0,0.5-0.2,0.5-0.5v-1.9c0-0.3-0.2-0.5-0.5-0.5c-0.3,0-0.5,0.2-0.5,0.5v1.9
		C25.4,29,25.5,29.2,25.8,29.2z"/>
	<path class="st2" d="M45.1,14.8c-0.3,0-0.5,0.2-0.5,0.5v1.9c0,0.3,0.2,0.5,0.5,0.5c0.3,0,0.5-0.2,0.5-0.5v-1.9
		C45.6,15,45.4,14.8,45.1,14.8z"/>
	<path class="st2" d="M48.9,49.4c-0.3,0-0.5,0.2-0.5,0.5v3.8c0,0.3,0.2,0.5,0.5,0.5c0.3,0,0.5-0.2,0.5-0.5v-3.8
		C49.4,49.6,49.2,49.4,48.9,49.4z"/>
	<path class="st2" d="M48.9,43.6c-0.3,0-0.5,0.2-0.5,0.5V46c0,0.3,0.2,0.5,0.5,0.5c0.3,0,0.5-0.2,0.5-0.5v-1.9
		C49.4,43.8,49.2,43.6,48.9,43.6z"/>
	<path class="st2" d="M41.2,32.1c-0.3,0-0.5,0.2-0.5,0.5v1.9c0,0.3,0.2,0.5,0.5,0.5s0.5-0.2,0.5-0.5v-1.9
		C41.7,32.3,41.5,32.1,41.2,32.1z"/>
	<path class="st2" d="M41.2,14.8c-0.3,0-0.5,0.2-0.5,0.5v1.9c0,0.3,0.2,0.5,0.5,0.5s0.5-0.2,0.5-0.5v-1.9
		C41.7,15,41.5,14.8,41.2,14.8z"/>
	<path class="st2" d="M41.2,26.3c-0.3,0-0.5,0.2-0.5,0.5v1.9c0,0.3,0.2,0.5,0.5,0.5s0.5-0.2,0.5-0.5v-1.9
		C41.7,26.5,41.5,26.3,41.2,26.3z"/>
	<path class="st2" d="M52.8,32.1c-0.3,0-0.5,0.2-0.5,0.5v1.9c0,0.3,0.2,0.5,0.5,0.5s0.5-0.2,0.5-0.5v-1.9
		C53.3,32.3,53.1,32.1,52.8,32.1z"/>
	<path class="st2" d="M60,47c0-1.7-1.3-3.1-2.9-3.3V29.8c0-0.2-0.1-0.4-0.3-0.5l-7.4-2.8v-19c0-0.3-0.2-0.5-0.5-0.5
		c-0.3,0-0.5,0.2-0.5,0.5V9l-11.2,2.8c-0.2,0.1-0.4,0.3-0.4,0.5v8.1l-6.7-1.7V6.6c0-0.1-0.1-0.3-0.3-0.4l-5.5-2.8V1.8
		c0-0.3-0.2-0.5-0.5-0.5c-0.3,0-0.5,0.2-0.5,0.5v1.6l-5.5,2.8c-0.2,0-0.3,0.2-0.3,0.4V15l-3.6,1.8c-0.2,0-0.3,0.2-0.3,0.4v11.1H6.6
		c-0.3,0-0.5,0.2-0.5,0.5v9.2c-2.2,0.2-3.8,2-3.8,4.3c0,2.2,1.7,4,3.8,4.3v10.6H2.7c-0.3,0-0.5,0.2-0.5,0.5c0,0.3,0.2,0.5,0.5,0.5
		h55.8c0.3,0,0.5-0.2,0.5-0.5c0-0.3-0.2-0.5-0.5-0.5h-1.4v-6.7C58.8,50.1,60,48.7,60,47z M3.2,42.2c0-1.8,1.5-3.4,3.4-3.4
		c1.8,0,3.4,1.5,3.4,3.4c0,1.8-1.5,3.4-3.4,3.4C4.8,45.5,3.2,44,3.2,42.2z M7.1,46.5c2.1-0.3,3.8-2.1,3.8-4.3c0-2.2-1.7-4-3.8-4.3
		v-8.7h10.6v27.9H7.1V46.5z M29.2,57.1H18.6V28.7c0-0.3-0.2-0.5-0.5-0.5h-3.4V17.5l3.6-1.8c0.2,0,0.3-0.2,0.3-0.4V6.9l5.3-2.7
		l5.3,2.7v12.2v1v23.6c0,0,0,0,0,0c-2.2,0.2-3.9,2-3.9,4.3c0,2.2,1.7,4,3.8,4.3V57.1z M26.3,48c0-1.8,1.5-3.4,3.4-3.4
		s3.4,1.5,3.4,3.4c0,1.8-1.5,3.4-3.4,3.4S26.3,49.8,26.3,48z M30.2,52.3C32.3,52,34,50.2,34,48c0-2.2-1.7-4-3.9-4.3c0,0,0,0,0,0
		V20.1v-0.4l14.4,3.7v33.8H30.2V52.3z M56.2,57.1H45.6V22.9c0-0.2-0.2-0.4-0.4-0.5l-7.3-1.8v-8L48.4,10v16.7c0,0.2,0.1,0.4,0.3,0.5
		l7.4,2.8v13.7c-1.6,0.3-2.8,1.7-2.8,3.3c0,1.7,1.3,3.2,2.9,3.4V57.1z M56.7,49.4c-1.3,0-2.4-1.1-2.4-2.4c0-1.3,1.1-2.4,2.4-2.4
		c1.3,0,2.4,1.1,2.4,2.4C59.1,48.3,58,49.4,56.7,49.4z"/>
	<path class="st2" d="M33.5,37.9c-0.3,0-0.5,0.2-0.5,0.5v1.9c0,0.3,0.2,0.5,0.5,0.5c0.3,0,0.5-0.2,0.5-0.5v-1.9
		C34,38,33.8,37.9,33.5,37.9z"/>
	<path class="st2" d="M52.8,37.9c-0.3,0-0.5,0.2-0.5,0.5v1.9c0,0.3,0.2,0.5,0.5,0.5s0.5-0.2,0.5-0.5v-1.9
		C53.3,38,53.1,37.9,52.8,37.9z"/>
	<path class="st2" d="M48.9,37.9c-0.3,0-0.5,0.2-0.5,0.5v1.9c0,0.3,0.2,0.5,0.5,0.5c0.3,0,0.5-0.2,0.5-0.5v-1.9
		C49.4,38,49.2,37.9,48.9,37.9z"/>
	<path class="st2" d="M48.9,32.1c-0.3,0-0.5,0.2-0.5,0.5v1.9c0,0.3,0.2,0.5,0.5,0.5c0.3,0,0.5-0.2,0.5-0.5v-1.9
		C49.4,32.3,49.2,32.1,48.9,32.1z"/>
	<path class="st2" d="M37.4,43.6c-0.3,0-0.5,0.2-0.5,0.5V46c0,0.3,0.2,0.5,0.5,0.5c0.3,0,0.5-0.2,0.5-0.5v-1.9
		C37.9,43.8,37.7,43.6,37.4,43.6z"/>
	<path class="st2" d="M37.4,49.4c-0.3,0-0.5,0.2-0.5,0.5v3.8c0,0.3,0.2,0.5,0.5,0.5c0.3,0,0.5-0.2,0.5-0.5v-3.8
		C37.9,49.6,37.7,49.4,37.4,49.4z"/>
	<path class="st2" d="M41.2,37.9c-0.3,0-0.5,0.2-0.5,0.5v1.9c0,0.3,0.2,0.5,0.5,0.5s0.5-0.2,0.5-0.5v-1.9
		C41.7,38,41.5,37.9,41.2,37.9z"/>
	<path class="st2" d="M33.5,26.3c-0.3,0-0.5,0.2-0.5,0.5v1.9c0,0.3,0.2,0.5,0.5,0.5c0.3,0,0.5-0.2,0.5-0.5v-1.9
		C34,26.5,33.8,26.3,33.5,26.3z"/>
	<path class="st2" d="M33.5,32.1c-0.3,0-0.5,0.2-0.5,0.5v1.9c0,0.3,0.2,0.5,0.5,0.5c0.3,0,0.5-0.2,0.5-0.5v-1.9
		C34,32.3,33.8,32.1,33.5,32.1z"/>
	<path class="st2" d="M37.4,37.9c-0.3,0-0.5,0.2-0.5,0.5v1.9c0,0.3,0.2,0.5,0.5,0.5c0.3,0,0.5-0.2,0.5-0.5v-1.9
		C37.9,38,37.7,37.9,37.4,37.9z"/>
	<path class="st2" d="M37.4,32.1c-0.3,0-0.5,0.2-0.5,0.5v1.9c0,0.3,0.2,0.5,0.5,0.5c0.3,0,0.5-0.2,0.5-0.5v-1.9
		C37.9,32.3,37.7,32.1,37.4,32.1z"/>
	<path class="st2" d="M41.2,49.4c-0.3,0-0.5,0.2-0.5,0.5v3.8c0,0.3,0.2,0.5,0.5,0.5s0.5-0.2,0.5-0.5v-3.8
		C41.7,49.6,41.5,49.4,41.2,49.4z"/>
	<path class="st2" d="M41.2,43.6c-0.3,0-0.5,0.2-0.5,0.5V46c0,0.3,0.2,0.5,0.5,0.5s0.5-0.2,0.5-0.5v-1.9
		C41.7,43.8,41.5,43.6,41.2,43.6z"/>
	<path class="st2" d="M37.4,26.3c-0.3,0-0.5,0.2-0.5,0.5v1.9c0,0.3,0.2,0.5,0.5,0.5c0.3,0,0.5-0.2,0.5-0.5v-1.9
		C37.9,26.5,37.7,26.3,37.4,26.3z"/>
</g>
</svg>
