<?xml version="1.0" encoding="utf-8"?>
<!-- Generator: Adobe Illustrator 22.0.0, SVG Export Plug-In . SVG Version: 6.00 Build 0)  -->
<svg version="1.1" id="Layer_1" xmlns="http://www.w3.org/2000/svg" xmlns:xlink="http://www.w3.org/1999/xlink" x="0px" y="0px"
	 viewBox="0 0 67.7 58.8" style="enable-background:new 0 0 67.7 58.8;" xml:space="preserve">
<style type="text/css">
	.st0{fill:#FFFFFF;}
	.st1{fill:#E2F7F3;}
	.st2{fill:#039BE5;}
</style>
<g>
	<polygon class="st0" points="7.3,56.8 7.3,14.5 21.6,14.5 21.6,3.4 45.2,3.4 45.7,14 60.5,14.5 60.5,56.8 	"/>
	<polygon class="st1" points="29,56.9 38.3,56.9 38.3,41.8 29,41.8 	"/>
	<path class="st1" d="M12.4,19.6h3.7v5.6h-3.7V19.6z M51.2,30.7h3.7v5.6h-3.7V30.7z M51.2,41.8h3.7v5.6h-3.7V41.8z M51.2,19.6h3.7
		v5.6h-3.7V19.6z M12.4,30.7h3.7v5.6h-3.7V30.7z M12.4,41.8h3.7v5.6h-3.7V41.8z M27.2,30.7h3.7v5.6h-3.7V30.7z M27.2,8.5h3.7V14
		h-3.7V8.5z M36.4,8.5h3.7V14h-3.7V8.5z M36.4,30.7h3.7v5.6h-3.7V30.7z M36.4,19.6h3.7v5.6h-3.7V19.6z M27.2,19.6h3.7v5.6h-3.7V19.6
		z"/>
	<path class="st2" d="M45.7,56.9c-0.3,0-0.5-0.2-0.5-0.5V3.4H22.1v53.1c0,0.3-0.2,0.5-0.5,0.5s-0.5-0.2-0.5-0.5V2.9
		c0-0.3,0.2-0.5,0.5-0.5h24.1c0.3,0,0.5,0.2,0.5,0.5v53.5C46.1,56.7,46,56.9,45.7,56.9z M38.3,57c-0.3,0-0.5-0.2-0.5-0.5V42.3h-8.3
		v14.1c0,0.3-0.2,0.5-0.5,0.5c-0.3,0-0.5-0.2-0.5-0.5V42.3h-3.2c-0.3,0-0.5-0.2-0.5-0.5c0-0.3,0.2-0.5,0.5-0.5H42
		c0.3,0,0.5,0.2,0.5,0.5c0,0.3-0.2,0.5-0.5,0.5h-3.2v14.3C38.7,56.9,38.6,57,38.3,57z M54.9,47.8h-3.7c-0.3,0-0.5-0.2-0.5-0.5v-5.6
		c0-0.3,0.2-0.5,0.5-0.5h3.7c0.3,0,0.5,0.2,0.5,0.5v5.6C55.4,47.6,55.2,47.8,54.9,47.8z M51.7,46.9h2.8v-4.6h-2.8V46.9z M16.1,47.8
		h-3.7c-0.3,0-0.5-0.2-0.5-0.5v-5.6c0-0.3,0.2-0.5,0.5-0.5h3.7c0.3,0,0.5,0.2,0.5,0.5v5.6C16.5,47.6,16.4,47.8,16.1,47.8z
		 M12.8,46.9h2.8v-4.6h-2.8V46.9z M54.9,36.7h-3.7c-0.3,0-0.5-0.2-0.5-0.5v-5.6c0-0.3,0.2-0.5,0.5-0.5h3.7c0.3,0,0.5,0.2,0.5,0.5
		v5.6C55.4,36.5,55.2,36.7,54.9,36.7z M51.7,35.8h2.8v-4.6h-2.8V35.8z M40.1,36.7h-3.7c-0.3,0-0.5-0.2-0.5-0.5v-5.6
		c0-0.3,0.2-0.5,0.5-0.5h3.7c0.3,0,0.5,0.2,0.5,0.5v5.6C40.6,36.5,40.4,36.7,40.1,36.7z M36.9,35.8h2.8v-4.6h-2.8V35.8z M30.9,36.7
		h-3.7c-0.3,0-0.5-0.2-0.5-0.5v-5.6c0-0.3,0.2-0.5,0.5-0.5h3.7c0.3,0,0.5,0.2,0.5,0.5v5.6C31.3,36.5,31.2,36.7,30.9,36.7z
		 M27.6,35.8h2.8v-4.6h-2.8V35.8z M6.8,57.3c-0.3,0-0.5-0.2-0.5-0.5V14c0-0.3,0.2-0.5,0.5-0.5h14.8c0.3,0,0.5,0.2,0.5,0.5
		s-0.2,0.5-0.5,0.5H7.3v42.3C7.3,57.1,7.1,57.3,6.8,57.3z M60.5,56.8V14.5H46.1c-0.3,0-0.5-0.2-0.5-0.5s0.2-0.5,0.5-0.5H61
		c0.3,0,0.5,0.2,0.5,0.5v42.8c0,0.3-0.2,0.5-0.5,0.5C60.7,57.3,60.5,57.1,60.5,56.8z M54.9,25.6h-3.7c-0.3,0-0.5-0.2-0.5-0.5v-5.6
		c0-0.3,0.2-0.5,0.5-0.5h3.7c0.3,0,0.5,0.2,0.5,0.5v5.6C55.4,25.4,55.2,25.6,54.9,25.6z M51.7,24.7h2.8v-4.6h-2.8V24.7z M40.1,25.6
		h-3.7c-0.3,0-0.5-0.2-0.5-0.5v-5.6c0-0.3,0.2-0.5,0.5-0.5h3.7c0.3,0,0.5,0.2,0.5,0.5v5.6C40.6,25.4,40.4,25.6,40.1,25.6z
		 M36.9,24.7h2.8v-4.6h-2.8V24.7z M30.9,25.6h-3.7c-0.3,0-0.5-0.2-0.5-0.5v-5.6c0-0.3,0.2-0.5,0.5-0.5h3.7c0.3,0,0.5,0.2,0.5,0.5
		v5.6C31.3,25.4,31.2,25.6,30.9,25.6z M27.6,24.7h2.8v-4.6h-2.8V24.7z M16.1,25.6h-3.7c-0.3,0-0.5-0.2-0.5-0.5v-5.6
		c0-0.3,0.2-0.5,0.5-0.5h3.7c0.3,0,0.5,0.2,0.5,0.5v5.6C16.5,25.4,16.4,25.6,16.1,25.6z M12.8,24.7h2.8v-4.6h-2.8V24.7z M16.1,36.7
		h-3.7c-0.3,0-0.5-0.2-0.5-0.5v-5.6c0-0.3,0.2-0.5,0.5-0.5h3.7c0.3,0,0.5,0.2,0.5,0.5v5.6C16.5,36.5,16.4,36.7,16.1,36.7z
		 M12.8,35.8h2.8v-4.6h-2.8V35.8z M40.1,14.5h-3.7c-0.3,0-0.5-0.2-0.5-0.5V8.5C36,8.2,36.2,8,36.4,8h3.7c0.3,0,0.5,0.2,0.5,0.5V14
		C40.6,14.3,40.4,14.5,40.1,14.5z M36.9,13.6h2.8V9h-2.8V13.6z M30.9,14.5h-3.7c-0.3,0-0.5-0.2-0.5-0.5V8.5c0-0.3,0.2-0.5,0.5-0.5
		h3.7c0.3,0,0.5,0.2,0.5,0.5V14C31.3,14.3,31.2,14.5,30.9,14.5z M27.6,13.6h2.8V9h-2.8V13.6z"/>
	<g>
		<path class="st2" d="M65.8,57.3H2.1c-0.3,0-0.5-0.2-0.5-0.5s0.2-0.5,0.5-0.5h63.7c0.3,0,0.5,0.2,0.5,0.5S66.1,57.3,65.8,57.3z"/>
	</g>
</g>
</svg>
