<?xml version="1.0" encoding="utf-8"?>
<!-- Generator: Adobe Illustrator 22.0.0, SVG Export Plug-In . SVG Version: 6.00 Build 0)  -->
<svg version="1.1" id="Layer_1" xmlns="http://www.w3.org/2000/svg" xmlns:xlink="http://www.w3.org/1999/xlink" x="0px" y="0px"
	 viewBox="0 0 67.7 58.8" style="enable-background:new 0 0 67.7 58.8;" xml:space="preserve">
<style type="text/css">
	.st0{fill:#FFFFFF;}
	.st1{fill:#E2F7F3;}
	.st2{fill:#039BE5;}
</style>
<circle class="st0" cx="14.7" cy="42.5" r="3.7"/>
<circle class="st0" cx="53.7" cy="36.1" r="3.7"/>
<g>
	<rect x="21.7" y="2.7" class="st0" width="23.9" height="53.9"/>
	<polygon class="st1" points="29.1,57.1 38.4,57.1 38.4,42 29.1,42 	"/>
	<path class="st1" d="M27.3,30.9H31v5.6h-3.7V30.9z M27.3,8.7H31v5.6h-3.7V8.7z M36.5,8.7h3.7v5.6h-3.7V8.7z M36.5,30.9h3.7v5.6
		h-3.7V30.9z M36.5,19.8h3.7v5.6h-3.7V19.8z M27.3,19.8H31v5.6h-3.7V19.8z"/>
	<path class="st2" d="M45.8,57.1c-0.3,0-0.5-0.2-0.5-0.5V3.6H22.2v53.1c0,0.3-0.2,0.5-0.5,0.5c-0.3,0-0.5-0.2-0.5-0.5V3.1
		c0-0.3,0.2-0.5,0.5-0.5h24.1c0.3,0,0.5,0.2,0.5,0.5v53.5C46.2,56.9,46,57.1,45.8,57.1z M38.4,57.2c-0.3,0-0.5-0.2-0.5-0.5V42.5
		h-8.3v14.1c0,0.3-0.2,0.5-0.5,0.5c-0.3,0-0.5-0.2-0.5-0.5V42.5h-3.2c-0.3,0-0.5-0.2-0.5-0.5s0.2-0.5,0.5-0.5h16.7
		c0.3,0,0.5,0.2,0.5,0.5s-0.2,0.5-0.5,0.5h-3.2v14.3C38.8,57.1,38.6,57.2,38.4,57.2z M40.2,36.9h-3.7c-0.3,0-0.5-0.2-0.5-0.5v-5.6
		c0-0.3,0.2-0.5,0.5-0.5h3.7c0.3,0,0.5,0.2,0.5,0.5v5.6C40.7,36.7,40.5,36.9,40.2,36.9z M37,36h2.8v-4.6H37V36z M31,36.9h-3.7
		c-0.3,0-0.5-0.2-0.5-0.5v-5.6c0-0.3,0.2-0.5,0.5-0.5H31c0.3,0,0.5,0.2,0.5,0.5v5.6C31.4,36.7,31.2,36.9,31,36.9z M27.7,36h2.8v-4.6
		h-2.8V36z M40.2,25.8h-3.7c-0.3,0-0.5-0.2-0.5-0.5v-5.6c0-0.3,0.2-0.5,0.5-0.5h3.7c0.3,0,0.5,0.2,0.5,0.5v5.6
		C40.7,25.6,40.5,25.8,40.2,25.8z M37,24.9h2.8v-4.6H37V24.9z M31,25.8h-3.7c-0.3,0-0.5-0.2-0.5-0.5v-5.6c0-0.3,0.2-0.5,0.5-0.5H31
		c0.3,0,0.5,0.2,0.5,0.5v5.6C31.4,25.6,31.2,25.8,31,25.8z M27.7,24.9h2.8v-4.6h-2.8V24.9z M40.2,14.7h-3.7c-0.3,0-0.5-0.2-0.5-0.5
		V8.7c0-0.3,0.2-0.5,0.5-0.5h3.7c0.3,0,0.5,0.2,0.5,0.5v5.6C40.7,14.5,40.5,14.7,40.2,14.7z M37,13.8h2.8V9.1H37V13.8z M31,14.7
		h-3.7c-0.3,0-0.5-0.2-0.5-0.5V8.7c0-0.3,0.2-0.5,0.5-0.5H31c0.3,0,0.5,0.2,0.5,0.5v5.6C31.4,14.5,31.2,14.7,31,14.7z M27.7,13.8
		h2.8V9.1h-2.8V13.8z"/>
	<g>
		<path class="st2" d="M61,57.5H7c-0.3,0-0.5-0.2-0.5-0.5s0.2-0.5,0.5-0.5h54c0.3,0,0.5,0.2,0.5,0.5S61.3,57.5,61,57.5z"/>
	</g>
	<path class="st2" d="M10.8,57.1h3.3V46.8c-2.1-0.3-3.7-2.1-3.7-4.2c0-2.3,1.9-4.2,4.2-4.2s4.2,1.9,4.2,4.2c0,2.2-1.7,3.9-3.7,4.2
		v10.3h21.5 M14.6,39.3c-1.8,0-3.3,1.5-3.3,3.3c0,1.8,1.5,3.3,3.3,3.3s3.3-1.5,3.3-3.3C17.9,40.8,16.4,39.3,14.6,39.3z"/>
	<path class="st2" d="M53.2,57V40.3c-2.1-0.3-3.7-2.1-3.7-4.2c0-2.3,1.9-4.2,4.2-4.2s4.2,1.9,4.2,4.2c0,2.2-1.7,3.9-3.7,4.2V57
		 M53.7,32.8c-1.8,0-3.3,1.5-3.3,3.3s1.5,3.3,3.3,3.3s3.3-1.5,3.3-3.3S55.5,32.8,53.7,32.8z"/>
</g>
</svg>
